<?xml version="1.0" encoding="UTF-8"?>
<!DOCTYPE svg PUBLIC "-//W3C//DTD SVG 1.1//EN" "http://www.w3.org/Graphics/SVG/1.1/DTD/svg11.dtd">
<!-- Creator: CorelDRAW 2020 (64 Bit) -->
<svg xmlns="http://www.w3.org/2000/svg" xml:space="preserve" width="240px" height="95px" version="1.1" style="shape-rendering:geometricPrecision; text-rendering:geometricPrecision; image-rendering:optimizeQuality; fill-rule:evenodd; clip-rule:evenodd"
viewBox="0 0 240 95"
 xmlns:xlink="http://www.w3.org/1999/xlink"
 xmlns:xodm="http://www.corel.com/coreldraw/odm/2003">
 <defs>
  <style type="text/css">
   <![CDATA[
    .fil3 {fill:#FEFEFE}
    .fil0 {fill:#373435}
    .fil4 {fill:black}
    .fil2 {fill:#0E0E0F}
    .fil1 {fill:#EAECED}
    .fil5 {fill:#EBEBEB}
    .fil6 {fill:#FEFEFE}
   ]]>
  </style>
 </defs>
 <g id="Camada_x0020_1">
  <metadata id="CorelCorpID_0Corel-Layer"/>
  <g id="_2645408324080">
   <path class="fil0" d="M170.09 85.69c3.83,1.21 23.04,6.98 25.71,7 2.25,0.02 23.67,-6.03 26.11,-7.23l6.08 -64.81 -63.63 -0.1 5.73 65.14z"/>
   <path class="fil1" d="M195.37 79.07l0.71 0.11 16.36 -4.51 2.1 -24.67 -18.49 -0.05 -8.44 -0.01 0.95 -12.28 7.66 -0.2 7.55 0.31 1.84 0.17 1.07 8.15 7.97 -0.04 -1.27 -13.69 -0.18 -3.41 -17.13 -0.17 -14.8 0.14 -2.53 29.24 26.86 0.05 -0.81 9.72c-0.93,0.18 -0.97,0.78 -3.89,1.55 -1.21,0.32 -2.21,0.4 -3.29,0.88l-1.44 0.13 -8.74 -2.13 -0.77 -6.31 -8.03 0.02 0.95 12 15.79 5z"/>
   <path class="fil2" d="M196.81 6.34c0.94,1.18 4.24,4.14 4.71,5.37 -2.65,0.27 -3.59,-0.26 -5.09,1.03l0.05 1.84c2.58,1.21 7.77,0.46 11.01,0.46 0.74,-3.4 -3.34,-6.86 -4.41,-7.21 -0.51,-2.49 1.7,-1.09 4.38,-1.84l-0.01 -3.06 -11.11 0c-0.12,0.77 -0.25,1.06 -0.11,1.86 0.18,1.07 0.3,1.08 0.58,1.55z"/>
   <polygon class="fil2" points="190.24,11.09 184.8,11.08 184.53,14.71 194.49,15.11 194.41,2.93 190.37,2.93 "/>
   <path class="fil0" d="M17.76 85.44c0.38,0.03 1.2,0.33 1.61,0.44l9.64 2.68c0.57,0.16 1.1,0.31 1.64,0.45 1.6,0.42 3.19,0.93 4.81,1.34 1.63,0.41 3.2,0.88 4.84,1.34 0.25,0.07 3.05,0.89 3.24,0.89l0 0c0.15,0 0.63,-0.15 0.8,-0.19l5.66 -1.57c0.55,-0.14 1.07,-0.31 1.6,-0.45 2.16,-0.55 4.32,-1.23 6.48,-1.79 0.54,-0.14 1.07,-0.3 1.63,-0.46 0.59,-0.16 9.4,-2.65 9.73,-2.68l1.44 -16.11c0.04,-1 0.21,-1.98 0.26,-3 0.02,-0.31 0.06,-0.7 0.09,-1.04 0.11,-0.98 0.13,-1.98 0.28,-2.99 0.09,-0.65 0.1,-1.39 0.18,-2.03l0.28 -3.04c0.09,-1.7 0.3,-3.34 0.44,-5.05 0.08,-1.11 0.21,-2.9 0.35,-3.99 0.17,-1.28 0.21,-2.76 0.37,-4.03 0.04,-0.34 0.06,-0.7 0.09,-1 0.04,-0.35 0.06,-0.69 0.09,-1 0.04,-0.35 0.08,-0.73 0.09,-1.04 0.08,-1.36 0.28,-2.69 0.35,-4.05l0.46 -5.03c0.13,-0.93 0.18,-2.08 0.28,-3.03 0.03,-0.34 0.06,-0.69 0.09,-1l0.17 -2c0.06,-1.03 0.23,-2.02 0.27,-3.05 0.02,-0.66 0.17,-1.35 0.17,-2.04l-63.18 0c0,0.8 0.65,7.04 0.7,8.05l0.32 3.52c0.15,1.13 0.15,2.37 0.32,3.51 0.13,0.96 0.2,2.09 0.27,3.03 0.06,0.71 0.15,1.37 0.18,2.05 0.04,1.01 0.23,1.99 0.26,3l0.36 4.04c0.11,0.87 0.15,2.2 0.28,3.03l0.54 6.04c0.03,1.01 0.21,1.99 0.26,3 0.04,0.92 0.25,3.03 0.35,4.04 0.03,0.31 0.05,0.7 0.1,1.04 0.1,0.66 0.09,1.33 0.18,1.99l0.9 10.12c0.12,1.16 0.21,2.97 0.37,4.03 0.09,0.65 0.19,2.25 0.27,2.99 0.02,0.19 0.03,0.38 0.04,0.53 0.02,0.18 0.04,0.37 0.05,0.51z"/>
   <path class="fil3" d="M43.59 78.9l0.04 -0.05c0.31,0.02 10.8,-2.97 12.11,-3.32l3.92 -1.09c0.15,-0.07 0.04,0 0.11,-0.08 0.06,-0.12 3.63,-39.86 3.57,-40.1 0.03,-0.05 0.04,0.07 0.04,-0.14l-19.78 -0.01 -19.82 0.01 0.71 7.89 19.1 0.02 11.12 0.02 -0.71 8.08 -10.43 0 -18.37 0 0.7 7.91 17.69 0 9.73 0 -0.92 10.23c-0.22,0.12 -8.44,2.3 -8.83,2.4l-0.07 -0.05c-0.26,0.01 -5.83,-1.53 -6.57,-1.74 -0.6,-0.17 -1.66,-0.38 -2.17,-0.6l-0.56 -6.28 -7.93 -0.01 1.09 12.39c0.07,0.03 0,0 0.11,0.05l0.37 0.11c0.17,0.04 0.33,0.09 0.51,0.14 0.34,0.1 0.68,0.19 1.02,0.29l12.17 3.37c0.63,0.17 1.44,0.45 2.05,0.56z"/>
   <polygon class="fil4" points="38.36,11.25 43.93,11.25 43.93,11.95 38.36,11.95 38.36,15.61 47.98,15.61 47.98,7.6 42.4,7.6 42.4,6.9 47.98,6.9 47.98,3.42 38.36,3.42 "/>
   <polygon class="fil4" points="49.85,11.25 55.42,11.25 55.42,11.95 49.85,11.95 49.85,15.61 59.47,15.61 59.47,7.6 53.9,7.6 53.9,6.9 59.47,6.9 59.47,3.42 49.85,3.42 "/>
   <polygon class="fil4" points="26.86,15.43 36.48,15.43 36.48,11.43 30.91,11.43 30.91,7.42 36.48,7.42 36.48,3.42 26.86,3.42 "/>
   <polygon class="fil0" points="119.33,93.07 121.21,93.07 146.57,85.83 152.22,20.74 88.32,20.68 94.16,85.93 "/>
   <path class="fil5" d="M100.54 38.55l1.88 19.37 17.85 0.18 9.86 0.03 -0.34 4.28 -1.15 6.32c-12.19,2.83 -3.94,1.73 -17.38,0.02l-0.58 -6.58 -7.62 -0.01 0.81 12.45 16.55 4.58c1.83,-1.27 9.95,-2.64 13.01,-3.55 0.57,-0.17 1.14,-0.35 1.67,-0.56 1.52,-0.62 0.93,-0.42 1.56,-0.79l2.21 -24.09 -18.57 -0.01 -10.5 -0.41 -0.86 -7.87 30.17 0.01 0.47 -1.19 0.75 -6.78 -20.33 0 -19.8 -0.01 0.34 4.61z"/>
   <path class="fil4" d="M130.45 14.63l3.69 0 -0.02 -11.7 -3.86 0 -2.61 4.1 -2.36 -4.1 -4.31 0 0.08 12.06 3.42 -0.02 0.41 -5.46c0.97,0.9 1.95,2.38 2.67,3.44 1.83,-1.5 1.35,-1.76 2.86,-3.42l0.03 5.1z"/>
   <polygon class="fil4" points="98.46,14.47 98.44,10.92 99.95,10.95 102.11,10.95 101.88,14.83 105.81,14.76 105.81,2.93 102.13,2.93 101.88,7.04 98.53,7.07 98.35,2.93 94.86,2.93 94.86,14.47 "/>
   <path class="fil4" d="M111.29 14.7l3.93 0.12 0 -6.8c1.16,-2.13 0.2,-1.36 3.59,-1.42l0 -3.67 -10.77 0 0 2.18c0.67,2.18 -0.3,0.65 1.41,1.61 0.01,0.01 1.55,0.38 2.01,0.57l-0.17 7.41z"/>
   <polygon class="fil4" points="146.43,14.41 146.28,11.13 140.54,11.09 140.59,2.93 137.1,2.93 137.1,14.63 "/>
   <polygon class="fil6" points="130.26,2.93 125.29,2.93 127.65,7.03 "/>
  </g>
 </g>
</svg>
