<?xml version="1.0" encoding="UTF-8"?>
<!DOCTYPE svg PUBLIC "-//W3C//DTD SVG 1.1//EN" "http://www.w3.org/Graphics/SVG/1.1/DTD/svg11.dtd">
<!-- Creator: CorelDRAW 2020 (64 Bit) -->
<svg xmlns="http://www.w3.org/2000/svg" xml:space="preserve" width="240px" height="76px" version="1.1" style="shape-rendering:geometricPrecision; text-rendering:geometricPrecision; image-rendering:optimizeQuality; fill-rule:evenodd; clip-rule:evenodd"
viewBox="0 0 240 76"
 xmlns:xlink="http://www.w3.org/1999/xlink"
 xmlns:xodm="http://www.corel.com/coreldraw/odm/2003">
 <defs>
  <style type="text/css">
   <![CDATA[
    .fil0 {fill:#373435}
   ]]>
  </style>
 </defs>
 <g id="Camada_x0020_1">
  <metadata id="CorelCorpID_0Corel-Layer"/>
  <g id="_2645961632528">
   <g>
    <path class="fil0" d="M206.6 40.2c6.02,0 5.47,0.56 5.87,-1.32 0.83,-3.92 1.93,-7.76 2.7,-11.71l1.22 -5.99c0.02,0.04 0.04,0.06 0.05,0.13l0.45 2.13c0.19,0.92 0.31,1.53 0.5,2.47 0.5,2.55 3.21,12.88 3.24,14.29 7.21,0 5.59,0.76 6.3,-2.75 0.21,-1.09 0.4,-2.04 0.62,-3.26 0.41,-2.34 3.61,-18 3.61,-19.47 -4.6,0 -4.27,-0.34 -4.48,0.87l-3 18.61c-0.14,0.93 0.09,0.8 -0.46,1.2 0,-2.35 -4.5,-19.25 -4.62,-20.68l-4.06 0 -4.8 20.87c-0.07,-0.8 -0.28,-1.65 -0.4,-2.56 -0.75,-5.4 -1.77,-10.63 -2.66,-15.99 -0.08,-0.48 -0.16,-1 -0.2,-1.28 -0.21,-1.4 0.28,-1.04 -4.87,-1.04l4.99 25.48z"/>
    <path class="fil0" d="M170.95 26.54l-4.43 0 0 -8.13 2.77 0c3.36,0 6.1,0.47 6.1,3.88 0,2.69 -1.78,4.25 -4.44,4.25zm-9.04 13.66l4.61 0 0 -9.97 3.88 0c0.16,0.67 1.49,2.89 1.91,3.63l2.09 3.82c0.5,0.93 0.89,1.64 1.36,2.52l5.17 0c-0.95,-1.78 -2.02,-3.45 -3.02,-5.29 -0.55,-1 -2.82,-4.6 -2.89,-5.42 2.34,-0.54 4.8,-3.17 4.8,-6.09 0,-2.88 0.03,-5.36 -2.96,-7.2 -3.34,-2.05 -10.4,-1.48 -14.95,-1.48l0 25.48z"/>
    <path class="fil0" d="M145.65 36.51l-1.47 0 0 -17.91c2.64,0 5.95,-0.19 7.89,2.08 2.13,2.5 1.89,4.94 1.89,8.07 0,5.16 -3.38,7.76 -8.31,7.76zm-6.09 3.69l7.57 0c7.17,0 11.64,-5.01 11.64,-12.19l0 -1.29c0,-7.73 -4.81,-12 -12.56,-12l-6.65 0 0 25.48z"/>
    <path class="fil0" d="M192.75 18.41c0.24,1.04 2.66,10.28 3.14,11.27l-6.28 0 2.29 -8.43c0.14,-0.57 0.22,-0.89 0.37,-1.48l0.48 -1.36zm-10.9 21.79l4.62 0c0.33,-0.69 0.73,-2.49 1,-3.43 0.29,-1 0.66,-2.62 1.03,-3.4l8.49 0c0.09,0.98 1.51,5.36 1.85,6.83l4.8 0c-0.07,-0.89 -1.62,-4.99 -1.99,-6.32l-4.13 -12.68c-0.33,-1 -0.76,-2.19 -1.04,-3.2 -0.27,-0.99 -0.89,-2.39 -0.96,-3.28l-5.36 0 -6.25 19.04c-0.37,1.09 -1.99,5.67 -2.06,6.44z"/>
    <path class="fil0" d="M56.64 26.72c0,4.22 0.8,8.34 3.73,11.04 4.93,4.53 12.95,3.35 15.66,-0.7 -0.23,-0.84 -1.69,-2.16 -2.22,-2.95 -1.53,1.02 -2.69,2.58 -5.54,2.58 -4.29,0 -6.83,-3.79 -6.83,-8.12 0,-3.15 -0.15,-4.8 1.7,-7.54 1.85,-2.75 5.72,-3.41 8.38,-1.81 0.84,0.5 1.01,1.01 1.92,1.22 0.18,-0.65 0.11,-0.32 0.49,-0.8l1.73 -2.15c-2.66,-1.78 -2.76,-3.14 -8.13,-3.14 -1.57,0 -3.44,0.61 -4.55,1.16 -1.34,0.67 -2.27,1.65 -3.25,2.66 -1.6,1.65 -3.09,5.34 -3.09,8.55z"/>
    <path class="fil0" d="M82.31 31.71c0,-2.31 -0.15,-3.61 1.06,-5.58 2.11,-3.41 7.62,-1.8 7.62,3.36l0 2.4c0,2.4 -1.69,4.99 -4.06,4.99 -1.49,0 -2.49,-0.14 -3.6,-1.77 -0.5,-0.74 -1.02,-2.23 -1.02,-3.4zm-4.8 -1.11c0,3.17 1.05,5.28 2.47,7.13 0.74,0.95 1.63,1.48 2.76,2.04 0.94,0.47 2.54,0.97 3.82,0.97 0.27,0 1.71,-0.19 2.11,-0.27 9.95,-2.02 9.7,-19.84 -2.3,-19.84 -2.69,0 -5.15,1.51 -6.41,3.01 -1.38,1.63 -2.45,4.05 -2.45,6.96z"/>
    <path class="fil0" d="M118.88 24.14c2.69,0 3.82,1.98 3.87,4.61l-8.31 0c0.06,-2.41 1.97,-4.61 4.44,-4.61zm-8.87 5.72c0,4.52 0.89,7.74 5.23,9.91 5.1,2.56 9.63,-0.77 10.65,-1.04 -0.23,-1.01 -1.02,-2.11 -1.47,-2.96 -2.64,1.4 -6.28,2.23 -8.55,-0.32 -0.7,-0.79 -1.4,-2.17 -1.43,-3.56l12.01 0c0.84,-3.6 -0.37,-8.82 -4.06,-10.53 -5.83,-2.7 -12.38,2.1 -12.38,8.5z"/>
    <path class="fil0" d="M129.77 35.96c0,6.02 6.28,4.84 6.67,4.28 0.23,-0.32 -0.39,-2.51 -0.39,-3.36 -2.24,0 -1.66,-0.56 -1.66,-4.99l0 -14.77c0.01,-2.91 0.82,-2.4 -4.62,-2.4l0 21.24z"/>
    <path class="fil0" d="M102.25 24.5c0,-0.85 -0.06,-1.33 -0.12,-1.9 -0.22,-1.86 0.73,-1.6 -3.38,-1.6 -0.43,0 -0.56,0.12 -0.56,0.55l0 18.65 4.62 0 0 -11.45c0,-1.32 2.06,-4.06 4.43,-4.06 1.03,0 1.1,0.18 2.03,0.18 0.11,-1.25 0.64,-2.62 0.74,-3.87 -1.67,-0.81 -4.09,-0.3 -5.57,0.89 -0.83,0.66 -1.11,1.1 -1.63,1.88l-0.56 0.73z"/>
    <path class="fil0" d="M78.06 52.95c-1.74,0 -1.29,0.62 -1.29,-5.91 4.1,0 6.65,-0.49 6.65,3.32 0,1.1 -0.86,1.81 -1.73,2.15 -0.8,0.31 -2.54,0.44 -3.63,0.44zm-3.32 8.31l2.03 0 0 -6.65c3.22,0 2.72,-0.72 4.8,3.14 0.65,1.2 1.38,2.27 2.03,3.51l2.4 0c-0.15,-0.56 -0.63,-1.22 -0.91,-1.68 -0.36,-0.6 -0.65,-1.09 -1.04,-1.73 -0.49,-0.82 -1.86,-2.79 -1.93,-3.61 4.32,-0.36 5.69,-8.87 -1.66,-8.87l-5.72 0 0 15.89z"/>
    <polygon class="fil0" points="115,61.26 117.21,61.26 117.21,53.87 124.78,53.87 124.78,61.26 127,61.26 127,45.37 124.78,45.37 124.78,52.02 117.21,52.02 117.21,45.37 115,45.37 "/>
    <path class="fil0" d="M58.3 53.13c0,6.97 5.32,9.89 10.51,7.92 0.55,-0.21 2.05,-0.94 2.05,-1.64l0 -6.46 -5.54 0 0 1.84 3.51 0c0,3.16 0.76,4.99 -2.77,4.99 -6.96,0 -6.72,-10.07 -2.9,-12.14 2.94,-1.59 4.56,-0.43 6.22,0.69l1.34 -1.25c-0.96,-0.67 -2.15,-2.08 -4.66,-2.08 -4.72,0 -7.76,3.4 -7.76,8.13z"/>
    <path class="fil0" d="M181.67 54.98c0,4.35 2.05,6.65 6.28,6.65 3.44,0 5.54,-2.62 5.54,-6.1l0 -10.16 -2.04 0 0 9.61c0,6.41 -7.57,6.55 -7.57,0.18l0 -9.79 -2.21 0 0 9.61z"/>
    <path class="fil0" d="M216.39 61.26l9.78 0c0,-2.5 1.09,-1.85 -7.57,-1.85l0 -5.54 6.1 0 0 -1.85 -6.1 0 0 -4.8 7.2 0 0 -1.85 -9.41 0 0 15.89z"/>
    <path class="fil0" d="M93.39 47.22c0.31,1.33 0.79,2.49 1.17,3.81 0.36,1.21 0.76,2.78 1.23,3.76l-4.8 0c0.42,-1.81 1.2,-3.73 1.74,-5.64 0.12,-0.43 0.18,-0.63 0.28,-1.01 0.08,-0.28 0.02,-0.14 0.13,-0.43l0.18 -0.37c0.01,-0.03 0.04,-0.08 0.07,-0.12zm-6.83 14.04l2.4 0c0.07,-0.82 1.16,-4.14 1.47,-4.81l5.91 0c0.04,0.45 1.29,4.41 1.48,4.81l2.22 0c-0.11,-1.32 -5.25,-14.56 -5.36,-15.89l-2.58 0 -4.14 11.94c-0.45,1.3 -0.84,2.87 -1.4,3.95z"/>
    <path class="fil0" d="M168.74 49.25c0,5.19 8.31,4.44 8.31,7.57 0,1.86 -0.93,2.96 -3.14,2.96 -2.33,0 -3.42,-1.11 -4.8,-2.03 -0.45,0.84 -0.66,0.81 -1.11,1.47 1.52,2.28 8.07,3.82 10.54,0.38 0.89,-1.23 1.26,-3.56 0.13,-4.95 -2.43,-2.97 -7.72,-2.48 -7.72,-5.58 0,-2 2.75,-2.69 5.05,-1.73 0.83,0.35 1,0.58 1.6,0.99 0.48,-0.32 0.94,-0.66 1.11,-1.29 -2.14,-3.21 -9.97,-2.63 -9.97,2.21z"/>
    <path class="fil0" d="M150.46 49.07c0,1.37 0.25,2.28 1.24,3.19 2.19,2.02 7.07,1.98 7.07,4.93 0,2.79 -3.58,3.11 -5.98,1.92 -0.99,-0.49 -1.23,-0.87 -1.97,-1.36 -0.4,0.6 -0.88,0.84 -1.1,1.66 2.13,1.43 2.7,2.22 6.09,2.22 2.49,0 5.17,-1.82 5.17,-4.25l0 -0.74c0,-5 -8.31,-3.58 -8.31,-7.76 0,-1.89 2.99,-2.51 5.18,-1.48 0.61,0.29 0.96,0.74 1.65,0.93 0.35,-0.52 0.74,-0.79 0.93,-1.48 -1.25,-0.84 -2.72,-1.85 -4.8,-1.85 -2.56,0 -5.17,1.56 -5.17,4.07z"/>
    <path class="fil0" d="M106.13 53.31l-2.4 0 0 -6.27c3.08,0 6.65,-0.43 6.65,3.13 0,2.39 -1.87,3.14 -4.25,3.14zm-4.43 7.95l2.03 0 0 -6.28c3.13,0 8.87,0.46 8.87,-4.81 0,-5.82 -6.37,-4.8 -10.9,-4.8l0 15.89z"/>
    <path class="fil0" d="M136.24 52.58l0 1.47c0,7.97 9.24,9.58 12.18,5.17l-1.14 -1.25c-0.86,0.56 -1.63,1.81 -3.84,1.81 -5.94,0 -6.48,-10 -2.28,-12.26 3.26,-1.75 4.78,0.53 5.97,0.81 0.26,-0.96 0.67,-0.52 0.93,-1.48 -0.62,-0.16 -4.91,-4.49 -9.75,0.41 -1.08,1.1 -2.07,3.19 -2.07,5.32z"/>
    <polygon class="fil0" points="201.43,47.22 206.41,47.22 206.41,61.26 208.63,61.26 208.63,47.22 213.43,47.22 213.43,45.37 201.43,45.37 "/>
    <polygon class="fil0" points="131.25,61.26 133.46,61.26 133.46,45.37 131.25,45.37 "/>
    <polygon class="fil0" points="197.18,61.26 199.21,61.26 199.21,45.37 197.18,45.37 "/>
    <path class="fil0" d="M233.56 17.12c0,-0.31 0.34,-1.11 0.51,-1.34 0.65,-0.88 3.55,-1.52 3.55,1.52 0,2.42 -4.06,2.35 -4.06,-0.18zm-0.37 0c0,2.86 4.67,3.38 4.9,0.13 0.24,-3.26 -4.9,-3.5 -4.9,-0.13z"/>
    <path class="fil0" d="M235.23 16.96l-0.01 -0.95 0.56 0c0.56,0 0.51,0.22 0.55,0.74l-1.1 0.21zm-0.56 1.45l0.55 0 0 -1.11c1.62,0.14 -0.07,1.07 1.67,1.11l-0.57 -1.1c0.01,-0.01 1.4,-1.67 -0.17,-1.67l-1.48 0 0 2.77z"/>
   </g>
   <g>
    <path class="fil0" d="M21.85 58.85l1.73 0 1.08 -3.68c3.24,-11.54 6.7,-27.01 3.8,-38.67 -0.65,-2.63 -2.03,-5.54 -3.98,-6.82 -0.49,-0.31 -1.19,-0.69 -1.99,-0.58 -1.87,0.28 -3.16,1.92 -3.99,3.49l-0.46 0.91c-0.09,0.2 -0.13,0.26 -0.21,0.46 -0.86,2.15 -1.63,5.52 -1.73,7.8 -0.03,0.84 -0.15,1.58 -0.15,2.49 0,0.46 0.02,0.89 -0.04,1.32 -0.09,0.62 0.03,3.43 0.1,3.91l0.17 2.55c0.03,0.82 0.16,1.6 0.23,2.41l0.33 2.39c0.26,1.63 0.48,3.16 0.78,4.66l1.17 5.56c0.07,0.33 0.2,0.76 0.27,1.09 0.39,1.89 1.17,4.66 1.68,6.48l1.21 4.23z"/>
    <path class="fil0" d="M20.94 58.77c-0.06,-0.23 -0.33,-0.63 -0.45,-0.83 -0.17,-0.29 -0.31,-0.57 -0.48,-0.88 -0.34,-0.61 -0.62,-1.15 -0.93,-1.79 -0.77,-1.52 -1.99,-3.88 -2.61,-5.4 -0.25,-0.62 -0.56,-1.25 -0.82,-1.9 -0.5,-1.28 -1.02,-2.51 -1.52,-3.84 -1.85,-4.97 -3.84,-12.06 -3.84,-17.61 0,-4.21 0.57,-7.79 2.66,-11.31 1.42,-2.38 3.78,-4.83 6.34,-5.98l0.29 -0.16c-1.85,0 -5.54,1.69 -7.06,2.83 -4.06,3.07 -6.48,7.5 -6.91,12.88 -0.36,4.5 0.98,8.41 2.31,12.34 0.93,2.76 2.51,6 3.8,8.59 0.27,0.54 0.56,1.08 0.88,1.61l0.86 1.55c1.43,2.49 3.44,5.48 5.31,7.69l1.2 1.3c0.11,0.14 0.12,0.18 0.27,0.33l0.7 0.58z"/>
    <path class="fil0" d="M35.37 25.53c0,2.32 -0.1,3.57 -0.42,5.78 -0.12,0.82 -0.25,1.54 -0.39,2.25 -0.69,3.45 -1.75,7.25 -3.02,10.51 -0.93,2.36 -2.06,5.35 -3.17,7.55 -1.1,2.16 -1.93,4.06 -3.2,6.25 -0.11,0.19 -0.41,0.71 -0.45,0.9 0.57,-0.38 1.91,-1.91 2.4,-2.51 1.24,-1.52 2.02,-2.61 3.13,-4.27 1.67,-2.51 3.13,-5.19 4.49,-7.9 0.15,-0.29 0.27,-0.53 0.4,-0.8l1.18 -2.6c0.25,-0.6 0.47,-1.15 0.7,-1.72 0.83,-2.08 1.25,-3.32 1.91,-5.57 0.68,-2.32 1.43,-6.12 1.1,-8.6 -0.4,-3.07 -0.79,-4.98 -2.27,-7.63 -1.8,-3.21 -4.39,-5.57 -7.8,-7 -0.85,-0.36 -2.79,-1.1 -3.88,-1.1l0.47 0.27c3.38,1.66 5.74,4.66 7.23,8.04 1,2.25 1.59,5.49 1.59,8.15z"/>
    <path class="fil0" d="M10.74 11.71c-0.36,0.03 -0.5,0.2 -0.78,0.35 -1.5,0.82 -3.41,2.25 -4.4,3.54 -1.52,1.95 -2.44,3.22 -3.16,5.9 -1.18,4.47 -0.11,9.26 1.4,13.47l0.63 1.64c0.43,1.08 1.58,3.73 2.14,4.65 0.75,1.23 1.48,2.84 2.46,4.34 0.32,0.48 0.57,0.93 0.88,1.39 0.3,0.45 0.6,0.91 0.91,1.36 0.93,1.4 2.69,3.82 3.84,5.22 0.34,0.43 0.69,0.79 1.03,1.23 0.21,0.26 0.32,0.36 0.52,0.62l2.2 2.33c0.27,0.2 0.39,0.4 0.64,0.57l-7.18 -10.12c-0.79,-1.21 -2.45,-4.07 -3.17,-5.52 -1.22,-2.45 -1.7,-3.39 -2.73,-5.95 -0.8,-2 -1.51,-4.35 -1.97,-6.72 -0.91,-4.68 -0.58,-10.04 2.35,-14.01 1.2,-1.62 2.39,-2.83 4.04,-4.03 0.09,-0.06 0.1,-0.06 0.18,-0.13 0.1,-0.06 0.1,-0.07 0.17,-0.13z"/>
    <path class="fil0" d="M26.68 58.25c0.6,-0.16 3.86,-4.08 4.36,-4.71 0.7,-0.84 1.32,-1.68 1.98,-2.56 0.6,-0.8 2.29,-3.2 2.78,-4.01 0.29,-0.49 0.58,-0.9 0.88,-1.39 0.57,-0.96 1.57,-2.61 2.06,-3.6 0.41,-0.82 0.77,-1.38 1.16,-2.24 0.47,-1.06 0.94,-2.04 1.38,-3.15 0.87,-2.16 1.63,-4.43 2.12,-6.96 0.2,-1.07 0.43,-2.96 0.43,-4.1 0,-3.05 -0.97,-6.15 -2.69,-8.64l-0.99 -1.27c-0.39,-0.4 -0.67,-0.82 -1.11,-1.16 -0.28,-0.21 -0.35,-0.33 -0.6,-0.54 -0.22,-0.18 -0.41,-0.31 -0.63,-0.5 -0.51,-0.41 -2.17,-1.56 -2.82,-1.71 0.12,0.16 1.42,1.07 1.76,1.42 0.37,0.38 0.74,0.58 1.12,1.06 0.53,0.66 0.85,0.92 1.46,1.8 2.85,4.12 3.38,8.99 2.37,13.98 -0.91,4.46 -2.08,7.28 -3.94,11.18 -0.15,0.31 -0.19,0.44 -0.35,0.71l-3.55 6.27c-0.54,0.89 -1.11,1.73 -1.69,2.61l-1.77 2.54c-0.16,0.23 -0.28,0.38 -0.45,0.6l-3.27 4.37z"/>
    <path class="fil0" d="M19.73 66.93l5.97 0c0.3,0 0.31,-0.59 0.43,-1.15l0.93 -4.06 -8.61 0c0,0.4 0.16,0.93 0.25,1.33l0.74 3.34c0.06,0.26 0.01,0.54 0.29,0.54z"/>
    <polygon class="fil0" points="26.68,58.25 26.6,58.25 26.67,58.33 "/>
    <polygon class="fil0" points="34.99,11.71 34.99,11.64 34.9,11.7 "/>
    <polygon class="fil0" points="10.74,11.71 10.82,11.71 10.75,11.62 "/>
   </g>
  </g>
 </g>
</svg>
