<?xml version="1.0" encoding="UTF-8"?>
<!DOCTYPE svg PUBLIC "-//W3C//DTD SVG 1.1//EN" "http://www.w3.org/Graphics/SVG/1.1/DTD/svg11.dtd">
<!-- Creator: CorelDRAW 2020 (64 Bit) -->
<svg xmlns="http://www.w3.org/2000/svg" xml:space="preserve" width="240px" height="76px" version="1.1" style="shape-rendering:geometricPrecision; text-rendering:geometricPrecision; image-rendering:optimizeQuality; fill-rule:evenodd; clip-rule:evenodd"
viewBox="0 0 240 76"
 xmlns:xlink="http://www.w3.org/1999/xlink"
 xmlns:xodm="http://www.corel.com/coreldraw/odm/2003">
 <defs>
  <style type="text/css">
   <![CDATA[
    .fil0 {fill:none}
    .fil2 {fill:#FEFEFE}
    .fil1 {fill:#373435}
   ]]>
  </style>
    <clipPath id="id0">
     <rect x="88.84" y="7.62" width="62.32" height="60.76"/>
    </clipPath>
 </defs>
 <g id="Camada_x0020_1">
  <metadata id="CorelCorpID_0Corel-Layer"/>
  <rect class="fil0" width="240" height="76"/>
  <g id="_2645955790240">
   <g style="clip-path:url(#id0)">
    <image x="88.84" y="7.62" width="62.31" height="60.76" xlink:href="3_Images\3_ImgID1.png"/>
   </g>
   <path class="fil1" d="M88.84 18.35l0 39.3c0,0.85 0.2,2.08 0.46,2.88 0.26,0.82 0.57,1.61 1.01,2.34 0.59,0.99 1.25,1.84 2.09,2.62l0.36 0.3c0.31,0.26 0.8,0.65 1.16,0.86 0.13,0.08 0.27,0.16 0.41,0.25 0.27,0.16 0.6,0.34 0.89,0.47 1.29,0.57 2.84,1.01 4.35,1.01l40.86 0c1.59,0 3.68,-0.56 5,-1.35 0.6,-0.35 1.47,-0.87 1.97,-1.37l0.53 -0.51c0.33,-0.32 0.66,-0.68 0.94,-1.05 0.97,-1.3 1.56,-2.47 1.97,-4.09 0.17,-0.67 0.32,-1.53 0.32,-2.36l0 -39.3c0,-1.71 -0.62,-3.8 -1.47,-5.23 -0.56,-0.92 -1.01,-1.53 -1.76,-2.28 -0.75,-0.75 -1.32,-1.17 -2.26,-1.74 -1.42,-0.86 -3.43,-1.46 -5.16,-1.48l-41.01 0c-0.82,0.01 -1.64,0.15 -2.29,0.32 -1.6,0.4 -3.19,1.17 -4.44,2.25 -0.57,0.5 -0.84,0.75 -1.34,1.34 -0.5,0.6 -0.7,0.9 -1.11,1.58l-0.24 0.42c-0.3,0.61 -0.35,0.75 -0.61,1.41 -0.07,0.17 -0.11,0.33 -0.16,0.5 -0.27,0.85 -0.47,2 -0.47,2.91z"/>
   <path class="fil2" d="M102.87 23.6l0 26.54c0,0.33 0.06,0.42 0.4,0.42l4.84 0c0.34,0 0.41,-0.12 0.41,-0.44l0.01 -8.27c0.8,-0.01 1.72,0.04 2.58,0.04 3.34,-0.03 6.43,-0.57 8.81,-2.81 0.12,-0.12 0.21,-0.2 0.32,-0.33 0.06,-0.07 0.08,-0.09 0.15,-0.16 0.06,-0.06 0.09,-0.12 0.16,-0.19 1.35,-1.53 1.94,-3.66 1.97,-5.82 0.05,-3.43 -1.4,-5.78 -3.19,-7.18 -2.21,-1.72 -4.85,-2.3 -8.3,-2.3 -2.12,0 -4.29,0.06 -6.41,0.1 -0.34,0.01 -0.69,0.02 -1.04,0.02 -0.43,0 -0.71,-0.11 -0.71,0.38zm5.67 4.64c-0.06,0.19 -0.02,6.7 -0.02,7.62 0,0.33 -0.03,0.78 0.01,1.09 0.92,0.08 2.18,0.08 3.1,0.01 0.87,-0.06 1.9,-0.28 2.63,-0.57 0.77,-0.31 1.45,-0.84 1.83,-1.35 1,-1.3 0.99,-3.74 0.08,-4.98 -0.43,-0.58 -0.97,-1.09 -1.8,-1.4 -0.82,-0.31 -1.74,-0.5 -2.71,-0.51 -0.94,0 -2.21,-0.03 -3.12,0.09z"/>
   <path class="fil2" d="M132.77 29.53c-2.04,0.09 -3.82,0.56 -5.38,1.81 -0.54,0.44 -1.2,1.21 -1.58,2.02 -0.85,1.83 -0.8,4.02 0.3,5.71 0.92,1.4 2.54,2.43 4.11,3.1 0.84,0.37 1.75,0.66 2.58,1.03 0.72,0.33 1.84,0.85 1.87,1.7 0.05,1.08 -1.1,1.39 -2.11,1.48 -1.92,0.16 -4.54,-0.41 -6.04,-1.14 -0.21,-0.11 -0.39,-0.2 -0.59,-0.3 -0.14,-0.08 -0.46,-0.33 -0.62,-0.22 -0.14,0.1 -0.08,0.6 -0.08,0.81l0 3.58c0,0.33 -0.04,0.55 0.16,0.75 0.34,0.32 2.07,0.79 2.69,0.91 3.17,0.65 7.49,0.57 9.97,-1.45 1.15,-0.93 1.91,-2.07 2.19,-3.69 0.26,-1.52 -0.02,-3.12 -0.88,-4.34 -0.2,-0.28 -0.61,-0.75 -0.86,-0.96 -0.17,-0.14 -0.3,-0.26 -0.49,-0.4 -1.16,-0.84 -2.88,-1.62 -4.23,-2.1 -0.64,-0.23 -1.95,-0.82 -2.4,-1.18 -0.27,-0.21 -0.68,-0.55 -0.68,-1.1 0.01,-0.57 0.35,-0.93 0.72,-1.1 0.8,-0.38 2.31,-0.32 3.26,-0.22 1,0.11 2.05,0.34 2.94,0.67 0.22,0.08 0.42,0.16 0.63,0.26 0.14,0.06 0.49,0.26 0.65,0.25 0.31,-0.02 0.27,-0.33 0.27,-0.61l0 -2.69c0,-0.37 0.08,-1.48 -0.13,-1.67 -0.14,-0.13 -1.03,-0.41 -1.31,-0.48 -1.34,-0.36 -3.6,-0.49 -4.96,-0.43z"/>
  </g>
 </g>
</svg>
