<?xml version="1.0" encoding="UTF-8"?>
<!DOCTYPE svg PUBLIC "-//W3C//DTD SVG 1.1//EN" "http://www.w3.org/Graphics/SVG/1.1/DTD/svg11.dtd">
<!-- Creator: CorelDRAW 2020 (64 Bit) -->
<svg xmlns="http://www.w3.org/2000/svg" xml:space="preserve" width="240px" height="95px" version="1.1" style="shape-rendering:geometricPrecision; text-rendering:geometricPrecision; image-rendering:optimizeQuality; fill-rule:evenodd; clip-rule:evenodd"
viewBox="0 0 240 95"
 xmlns:xlink="http://www.w3.org/1999/xlink"
 xmlns:xodm="http://www.corel.com/coreldraw/odm/2003">
 <defs>
  <style type="text/css">
   <![CDATA[
    .fil1 {fill:black}
    .fil0 {fill:black}
    .fil2 {fill:#FDFDFD}
    .fil3 {fill:white}
   ]]>
  </style>
 </defs>
 <g id="Camada_x0020_1">
  <metadata id="CorelCorpID_0Corel-Layer"/>
  <g id="_2645416155904">
   <g>
    <g>
     <path class="fil0" d="M196.11 73.27l1.37 -0.02 -0.01 -4.42 2.25 0.02c0.79,0.93 2.28,4.06 3.1,4.43l1.31 0c-0.86,-1.58 -2.04,-3.03 -2.91,-4.51 3.35,-0.93 3.37,-3.61 2.28,-5.28 -1.19,-1.83 -4.72,-1.37 -7.41,-1.34l0.02 11.12zm1.35 -5.64c2.34,0 5.23,0.47 5.21,-2.18 -0.02,-2.61 -2.77,-2.09 -5.08,-2.11l-0.13 4.29z"/>
     <path class="fil0" d="M215.2 66.55l0.5 0.58c0.89,-0.5 1.59,-1.38 3.28,-0.94 1.29,0.34 1.47,1.45 1.23,3 -1.34,-1.61 -5.37,-1.48 -5.42,1.53 -0.06,3.02 3.82,3.53 5.39,1.71l0.12 0.85 1.21 -0.04c-0.03,-1.91 0.4,-6.14 -0.62,-7.3 -1.25,-1.45 -4.87,-1.13 -5.69,0.61zm5.08 4.72l0 -0.91c0,-1.52 -4.13,-2.08 -4.24,0.37 -0.12,2.73 4.24,2.09 4.24,0.54z"/>
     <path class="fil0" d="M212.58 72.2l-0.48 -0.74c-0.95,0.53 -1.74,1.36 -3.45,0.89 -1.1,-0.3 -1.94,-1.36 -2.01,-2.72l6.55 0.01c-0.38,-6.2 -6.13,-5.52 -7.55,-2.1 -1.89,4.54 3.58,7.94 6.94,4.66zm-5.97 -3.48l5.31 0c-0.19,-3.43 -4.86,-3.8 -5.31,0z"/>
     <path class="fil0" d="M230.53 71.93l-0.59 -0.47c-0.67,0.17 -1.5,1.51 -3.44,0.69 -2.11,-0.88 -2.23,-4.77 0,-5.78 1.77,-0.79 2.5,0.26 3.44,0.71 0.3,-0.39 0.32,-0.29 0.55,-0.73 -2.07,-2.74 -6.94,-1.15 -6.9,2.92 0.05,4.37 5.42,5.57 6.94,2.66z"/>
     <path class="fil0" d="M232.63 65.21l-1.34 0.07 0.02 0.97 1.33 0.08c-0.03,4.83 -0.88,8.23 3.21,6.82 -0.28,-1.82 -0.22,-0.47 -1.75,-0.92 -0.4,-1.22 -0.23,-4.37 -0.23,-5.93l1.62 -0.02 0.03 -0.98 -1.61 -0.08 -0.04 -2.12 -1.24 -0.09 0 2.2z"/>
    </g>
    <g>
     <path class="fil0" d="M197.13 38.54l0 1.35c2.08,3.66 4.1,4.38 7.95,5.69 -0.33,2.26 -1.34,6.56 0.45,8.98 0.71,0.96 1.23,0.91 2.14,1.42l1.56 0c1.43,-0.71 2.23,-0.64 3.77,-1.66 1.21,-0.8 2.2,-1.76 3.23,-2.42 1.86,1.75 2.94,2.67 5.31,3.63l0.81 0.35c0.05,0.02 0.14,0.06 0.2,0.1l2.05 0c4.22,-2.41 2.98,-6.27 2.5,-10.5 12.83,-3.9 7.37,-10.97 -0.06,-12.45 0.19,-2.23 0.8,-3.85 0.42,-6.38 -0.4,-2.61 -1.09,-3.16 -2.83,-4.17l-1.59 0c-0.54,0.25 -1.34,0.35 -2.06,0.65 -2.95,1.25 -3.94,3.02 -5.12,3.47 -1.21,-1.37 -2.8,-2.5 -4.6,-3.31l-1.91 -0.81 -1.66 0c-1.4,0.78 -2.69,0.84 -3.09,4.13 -0.33,2.67 0.32,4.1 0.47,6.38 -3.84,0.97 -6.16,2.35 -7.94,5.55zm16.33 -5.31c-1.3,0.16 -1.28,0.54 -1.8,1.45 -2.19,3.82 -2.9,3.72 -1.52,6.48 0.37,0.73 2.03,3.65 2.51,3.93 0.61,0.35 5.38,0.33 6.24,0.16 1.18,-0.24 1.9,-2.06 2.79,-3.64 1.28,-2.26 1.71,-1.95 0.29,-4.28 -2.26,-3.72 -1.51,-4.94 -8.51,-4.1zm-6.28 11.15l3.24 0.65 -2.2 -3.82c-0.32,1.02 -0.84,2.05 -1.04,3.17zm-0.04 -10.36l1.08 3.23c0.03,-0.04 0.1,-0.19 0.12,-0.15 0.02,0.04 0.1,-0.13 0.13,-0.16l2 -3.38 -3.33 0.46zm14.45 10.93l3.47 -0.5 -1.22 -3.32 -2.25 3.82zm2.01 -7.69c0.34,-0.32 0.14,0.07 0.54,-0.67 0.01,-0.02 0.25,-0.67 0.28,-0.75 0.25,-0.67 0.41,-1.05 0.55,-1.77l-3.33 -0.59c0.57,1.39 1.41,2.25 1.96,3.78zm-9.64 -5.64l4.19 -0.02c-0.6,-1.15 -1.32,-1.96 -2.17,-2.65 -0.73,1.04 -1.33,1.27 -2.02,2.67zm2.32 17.91c0.6,-0.89 1.35,-1.54 1.91,-2.7l-4.23 0.03c0.59,1.13 1.44,2.14 2.32,2.67zm10.24 -5.59c2.38,-0.47 6.71,-2.59 6.75,-4.72 0.04,-2.11 -4.38,-4.2 -6.76,-4.71 -0.24,0.94 -1.7,4.32 -1.69,4.71 0,0.45 1.44,3.51 1.7,4.72zm-9.28 -16.35l2.78 3.71c0.61,0.65 4.3,1.12 5.46,1.23 2.61,-14.99 -6.68,-5.85 -8.24,-4.94zm0.02 23.28c1.38,0.88 11.14,9.91 8.3,-4.94 -0.92,0.14 -1.79,0.34 -2.7,0.47 -1.64,0.23 -1.92,-0.02 -2.7,0.66 -0.22,0.2 -2.81,3.63 -2.9,3.81zm-2.34 0.08c-0.32,-0.97 -0.72,-1.04 -1.37,-1.85 -2.92,-3.67 -0.8,-1.78 -6.83,-3.11 -0.77,2.12 -1.35,7.65 1.11,8.32 2.26,0.61 6.14,-2.62 7.09,-3.36zm-8.26 -18.42c8.06,-1.17 3.77,-0.53 8.24,-4.57 -0.72,-1.2 -4.47,-4.22 -6.86,-3.84 -2.73,0.44 -2.01,5.99 -1.38,8.41zm-1.28 11.5c0.15,-0.18 1.87,-4.37 1.9,-4.62 0.08,-0.7 -1.35,-3.67 -1.64,-4.92 -2.34,0.53 -6.88,2.47 -6.85,4.73 0.04,2.47 4.27,3.94 6.59,4.81z"/>
     <path class="fil0" d="M215.1 36.02c-4.05,1.25 -2.56,7.67 1.94,6.37 4.1,-1.19 2.37,-7.7 -1.94,-6.37z"/>
    </g>
   </g>
   <g>
    <path class="fil1" d="M51.72 47.76l0 2.19c3.49,0.55 4.35,4.1 4.69,7.52 0.32,3.14 -0.55,5.75 1.59,7.58 0.93,0.79 1.05,0.55 1.99,1.09l27.11 0c1.61,-0.88 2.5,-1.04 3.16,-2.97 0.38,-1.14 0.19,-4.21 0.34,-5.7 0.34,-3.46 1.21,-7.04 4.68,-7.49l0 -2.24c-3.38,-0.41 -4.33,-4.03 -4.69,-7.51 -0.29,-2.96 0.52,-5.71 -1.57,-7.59 -0.72,-0.65 -1.16,-0.65 -1.93,-1.07l-27.09 0c-0.84,0.49 -2.52,0.76 -3.25,2.96 -0.66,1.98 0.94,12.43 -5.03,13.23z"/>
    <path class="fil2" d="M66.8 58.01c1.43,0.27 5.22,0.09 6.87,0.08 2.18,-0.02 4.32,-0.3 5.63,-1.53 1.11,-1.04 2.11,-2.87 1.43,-5.08 -0.55,-1.78 -1.89,-2.7 -3.94,-3.2 1.54,-0.72 2.64,-1.28 3.08,-3.07 0.45,-1.79 -0.38,-3.67 -1.56,-4.45 -1.53,-1.01 -2.94,-1.16 -5.15,-1.16 -2,0 -4.34,-0.11 -6.29,0.03l-0.07 18.38zm3.06 -10.57c2.72,-0.09 6.92,0.57 7.12,-2.57 0.22,-3.55 -4.15,-2.87 -7.14,-2.84l0.02 5.41zm-0.01 8.22c3.23,0.05 8,0.71 7.99,-3 -0.01,-3.77 -4.99,-2.94 -8.01,-2.96l0.02 5.96z"/>
   </g>
   <g>
    <path class="fil0" d="M104.69 34.87l0 27.97c0.54,0.9 0.58,1.57 1.31,2.27 0.69,0.67 1.39,0.77 2.27,1.31l74.84 0c0.89,-0.54 1.56,-0.63 2.26,-1.32 0.71,-0.71 0.77,-1.36 1.32,-2.28l0 -27.94c-0.56,-0.93 -0.57,-1.55 -1.32,-2.28 -0.72,-0.71 -1.35,-0.76 -2.26,-1.32l-74.84 0c-0.9,0.55 -1.56,0.62 -2.27,1.32 -0.73,0.7 -0.76,1.36 -1.31,2.27z"/>
    <path class="fil3" d="M163.36 54.78c-0.36,4.92 -4.47,3.64 -7.82,2.57l-0.01 3.57c4.67,1 7.8,1.29 10.42,-2.08 1.89,-2.43 1.07,-9.34 1.06,-12.74 0.05,-0.03 0.15,-0.13 0.18,-0.08 0,0 0.66,-0.14 1.14,-1.05 0.27,-0.5 0.53,-1.14 0.75,-1.74 -2.58,-1.29 -10.65,-1.46 -13.1,3.01 -1.62,2.96 -1.21,10.71 7.38,8.54zm-0.15 -9.11c-5.66,0.21 -3.94,5.05 -3.32,5.72 0.27,0.3 3.35,1.98 3.49,-0.47 0.06,-1.13 -0.03,-4.13 -0.17,-5.25z"/>
    <path class="fil3" d="M118.84 42.69c-5.53,-0.79 -9.34,2.41 -8.22,8.04 1.28,6.48 11.44,4.48 11.93,3.91 0.61,-1.12 0.18,-15.16 0.17,-17.73l-3.87 -0.09 -0.01 5.87zm0 9.42l0 -6.33c-2.57,-0.27 -4.27,0.07 -4.41,2.95 -0.15,3.05 1.61,3.52 4.41,3.38z"/>
    <path class="fil3" d="M173.2 42.78c-5.81,1.78 -5.65,9.64 -1.52,11.87 1.47,0.8 3.68,1.12 5.49,0.55 3.79,-1.18 4.84,-4.84 4.08,-8.22 -0.74,-3.28 -4.15,-5.4 -8.05,-4.2zm1.22 2.98c-2.77,0.94 -2.12,7.52 1.4,6.47 2.74,-0.81 2.15,-7.69 -1.4,-6.47z"/>
    <path class="fil3" d="M131.25 43.64l0 2.95c1.12,-0.3 2.02,-0.81 3.33,-1.01 2.19,-0.32 2.57,-0.3 2.54,1.67 -1.85,0.39 -8.24,0.71 -6.48,5.9 1.1,3.26 8.37,2.2 10.03,1.71 0.06,-2.12 0.34,-9.45 -0.44,-10.83 -1.43,-2.53 -6.52,-1.28 -8.98,-0.39zm2.9 8.62c0.98,0.57 1.79,0.41 2.92,0.23 0.37,-0.77 0.25,-1.73 0.23,-2.62 -1.68,0.2 -3.86,0.14 -3.15,2.39z"/>
    <path class="fil3" d="M142.59 55.06l3.84 0.09 0.04 -9.28c5.02,-0.97 3.36,1.35 3.7,9.24l3.83 0.05c0.12,-2.23 0.23,-6.96 -0.04,-9.06 -0.37,-2.89 -2.73,-3.6 -5.76,-3.57 -7.03,0.08 -5.64,1.61 -5.63,3.33 0.03,3.06 -0.05,6.15 0.02,9.2z"/>
    <path class="fil3" d="M121.35 58.68c0.54,0.62 1.44,0.92 2.2,1.3 1.12,0.56 1.34,0.67 2.37,-0.05 1.33,-0.92 2.23,-2.01 2.67,-4.03 0.52,-2.37 0.49,-10.48 0.27,-13.1l-3.8 0c-0.32,5.67 1.53,14.42 -3.71,15.88z"/>
    <polygon class="fil3" points="125.04,40.8 128.84,40.8 128.92,36.83 125.03,36.82 "/>
   </g>
   <g>
    <path class="fil1" d="M30.5 67.89c1.25,-0.38 2.76,-0.93 2.97,-2.46 0.29,-1.72 -0.01,-3.81 0.01,-5.63l-9.51 -0.13 0.01 -1.33c4.34,-0.01 8.7,-0.02 13.05,0 8.77,0.06 7.94,-14.92 4.23,-18.04 -1.77,-1.48 -3.61,-1.2 -6.35,-1.22 0,3.69 0.82,9.17 -4.04,10.2 -5.71,1.2 -15.87,-2.58 -16.4,4.91 -0.15,2.24 -0.02,4.93 -0.02,7.22 0,2.73 0.06,4.14 1.85,5.43 2.96,2.14 10.61,2.14 14.2,1.05zm-1.45 -5.7c-2.25,0.58 -1.26,3.83 0.81,3.32 2.28,-0.57 1.37,-3.89 -0.81,-3.32z"/>
    <path class="fil1" d="M24.06 38.02l-0.09 1.35 -14.03 0c-5.62,0.45 -5.45,7.4 -5.79,8.3 0,3.05 0.23,6.51 2.06,9.04 1.56,2.15 3.61,1.87 6.93,1.89 -0.03,-4.68 -0.48,-9.2 4.02,-10.18 5.63,-1.23 16.06,2.63 16.42,-5.11 0.1,-2.29 0.03,-4.89 0.01,-7.21 -0.02,-2.96 -0.06,-3.96 -1.98,-5.32 -2.93,-2.06 -10.97,-2.08 -14.35,-0.91 -1.38,0.48 -2.52,1.07 -2.68,2.44 -0.42,0.23 -0.22,4.86 -0.16,5.65l9.64 0.06zm-5.77 -5.81c-2.49,0.56 -1.44,3.82 0.73,3.3 1.94,-0.48 1.42,-3.79 -0.73,-3.3z"/>
   </g>
  </g>
 </g>
</svg>
